<?xml version="1.0" encoding="utf-8"?>
<!-- Generator: Adobe Illustrator 22.1.0, SVG Export Plug-In . SVG Version: 6.00 Build 0)  -->
<svg version="1.1" id="Layer_1" xmlns="http://www.w3.org/2000/svg" xmlns:xlink="http://www.w3.org/1999/xlink" x="0px" y="0px"
	 viewBox="0 0 32 32" style="enable-background:new 0 0 32 32;" xml:space="preserve">
<title>the-movie-database</title>
<path d="M26,29.2c2.8,0,4.7-1.9,4.7-4.7V4.7C30.7,1.9,28.8,0,26,0H6C3.2,0,1.3,1.9,1.3,4.7V32l2.4-2.8V4.7c0-1.3,1-2.3,2.3-2.3h20
	c1.3,0,2.3,1,2.3,2.3v19.8c0,1.3-1,2.3-2.3,2.3H9.2l-2.4,2.4l0,0L26,29.2z M11.7,15.3H9.5v7.6h2.3C16.8,22.9,16.8,15.3,11.7,15.3z
	 M11.7,21.4H11v-4.6h0.7C14.7,16.8,14.7,21.4,11.7,21.4z M11.3,13.9h1.5V7.8h1.9V6.3H9.4v1.5h1.9L11.3,13.9z M18.8,9.6l-2.6-3.3
	h-0.5V14h1.5V9.7l1.6,2l1.6-2l0,4.2h1.5V6.3h-0.5L18.8,9.6z M21.3,19.1c0.5-0.3,0.7-0.9,0.7-1.5c0-1.3-0.8-2.3-2.2-2.3h-3v7.6h3
	c1.2,0,2.2-1,2.2-2.3v0C22.1,20,21.8,19.4,21.3,19.1L21.3,19.1z M18.4,16.8h1.4c0.4,0,0.7,0.3,0.7,0.8c0,0.4-0.3,0.8-0.7,0.8h-1.4
	V16.8z M19.7,21.4h-1.4v-1.5h1.4c0.4,0,0.7,0.3,0.7,0.7v0C20.5,21,20.2,21.4,19.7,21.4L19.7,21.4z"/>
</svg>
